<svg width="218" height="218" viewBox="0 0 218 218" fill="none" xmlns="http://www.w3.org/2000/svg">
<g id="g1137">
<g id="g1139">
<g id="Clip path group">
<mask id="mask0_1171_13142" style="mask-type:luminance" maskUnits="userSpaceOnUse" x="0" y="0" width="218" height="218">
<g id="clipPath1145">
<path id="path1143" d="M0 1.52588e-05H218V218H0V1.52588e-05Z" fill="white"/>
</g>
</mask>
<g mask="url(#mask0_1171_13142)">
<g id="g1141">
<g id="g1147">
<path id="path1149" d="M70.0678 125.547C57.2991 126.34 45.7485 127.512 35.9785 128.978" stroke="white" stroke-width="6" stroke-miterlimit="10" stroke-linecap="round" stroke-linejoin="round"/>
</g>
<g id="g1151">
<path id="path1153" d="M182.448 129.042C172.565 127.545 160.834 126.348 147.845 125.542" stroke="white" stroke-width="6" stroke-miterlimit="10" stroke-linecap="round" stroke-linejoin="round"/>
</g>
<g id="g1155">
<path id="path1157" d="M188.502 13.7974C204.877 16.7212 214.806 20.5563 214.806 24.7549" stroke="white" stroke-width="6" stroke-miterlimit="10" stroke-linecap="round" stroke-linejoin="round"/>
</g>
<g id="g1159">
<path id="path1161" d="M3.19336 24.7551C3.19336 15.5838 50.5658 8.14966 109 8.14966C133.353 8.14966 155.786 9.44105 173.668 11.6108" stroke="white" stroke-width="6" stroke-miterlimit="10" stroke-linecap="round" stroke-linejoin="round"/>
</g>
<g id="g1163">
<path id="path1165" d="M214.807 24.7551V140.993C214.807 145.685 202.399 149.926 182.447 152.945V36.7068C202.399 33.688 214.807 29.4472 214.807 24.7551Z" stroke="white" stroke-width="6" stroke-miterlimit="10" stroke-linecap="round" stroke-linejoin="round"/>
</g>
<g id="g1167">
<path id="path1169" d="M3.19336 93.6983V24.755C3.19336 29.4811 15.7795 33.7475 35.9785 36.7705V153.009C15.7795 149.986 3.19336 145.719 3.19336 140.993V109.449" stroke="white" stroke-width="6" stroke-miterlimit="10" stroke-linecap="round" stroke-linejoin="round"/>
</g>
<g id="g1171">
<path id="path1173" d="M147.844 125.198C146.778 127.655 145.368 130.066 143.503 132.648C133.457 146.559 120.943 156.007 109 156.007C97.0561 156.007 84.542 146.559 74.4961 132.648C72.6925 130.151 71.3147 127.815 70.2617 125.441" stroke="white" stroke-width="6" stroke-miterlimit="10" stroke-linecap="round" stroke-linejoin="round"/>
</g>
<g id="g1175">
<path id="path1177" d="M87.8993 164.271L75.9902 167.854" stroke="white" stroke-width="6" stroke-miterlimit="10" stroke-linecap="round" stroke-linejoin="round"/>
</g>
<g id="g1179">
<path id="path1181" d="M130.452 164.271L141.636 167.663" stroke="white" stroke-width="6" stroke-miterlimit="10" stroke-linecap="round" stroke-linejoin="round"/>
</g>
<g id="g1183">
<path id="path1185" d="M107.685 182.535C98.7715 182.206 93.7107 178.552 90.892 175.054C88.5622 172.163 87.556 168.424 87.9869 164.737L89.8016 149.211" stroke="white" stroke-width="6" stroke-miterlimit="10" stroke-linecap="round" stroke-linejoin="round"/>
</g>
<g id="g1187">
<path id="path1189" d="M128.233 149.451L130.015 164.739C130.445 168.426 129.439 172.162 127.11 175.052C125.924 176.524 124.341 178.024 122.242 179.292" stroke="white" stroke-width="6" stroke-miterlimit="10" stroke-linecap="round" stroke-linejoin="round"/>
</g>
<g id="g1191">
<path id="path1193" d="M33.5859 209.638L36.8423 191.358C38.7911 180.139 46.7771 171.133 57.6796 167.852L70.2555 164.07C72.8413 163.293 75.4854 165.108 75.6791 167.801C76.3254 176.788 78.528 195.456 85.9647 209.638" stroke="white" stroke-width="6" stroke-miterlimit="10" stroke-linecap="round" stroke-linejoin="round"/>
</g>
<g id="g1195">
<path id="path1197" d="M184.414 209.638L181.158 191.358C179.209 180.139 171.223 171.133 160.32 167.852L147.744 164.07C145.159 163.293 142.514 165.108 142.321 167.801C141.674 176.788 139.472 195.456 132.035 209.638" stroke="white" stroke-width="6" stroke-miterlimit="10" stroke-linecap="round" stroke-linejoin="round"/>
</g>
<g id="g1199">
<path id="path1201" d="M154.339 56.2511C159.75 65.9768 161.151 77.7846 157.223 89.0078C156.863 90.0373 156.352 91.0745 155.759 92.0994" stroke="white" stroke-width="6" stroke-miterlimit="10" stroke-linecap="round" stroke-linejoin="round"/>
</g>
<g id="g1203">
<path id="path1205" d="M62.3351 92.1528C59.6702 86.6824 58.5342 80.3178 58.5342 74.1883C58.5342 57.6352 72.5381 40.133 87.8011 47.6446C98.5593 36.281 115.584 31.648 131.56 37.1985C136.568 38.937 141.032 41.5219 144.842 44.7314" stroke="white" stroke-width="6" stroke-miterlimit="10" stroke-linecap="round" stroke-linejoin="round"/>
</g>
<g id="g1207">
<path id="path1209" d="M114.69 81.7162C103.616 78.7187 97.615 71.7938 91.9261 65.5191C90.8561 64.3392 88.9026 64.7139 88.361 66.2118C86.0431 72.6224 83.0137 77.9519 77.3729 81.2687C77.1179 81.4186 76.8671 81.5834 76.6201 81.7605" stroke="white" stroke-width="6" stroke-miterlimit="10" stroke-linecap="round" stroke-linejoin="round"/>
</g>
<g id="g1211">
<path id="path1213" d="M64.2772 114.971H54.5153C52.1552 114.971 50.2422 113.058 50.2422 110.698V96.5964C50.2422 94.2363 52.1552 92.3233 54.5153 92.3233H64.0899" stroke="white" stroke-width="6" stroke-miterlimit="10" stroke-linecap="round" stroke-linejoin="round"/>
</g>
<g id="g1215">
<path id="path1217" d="M154.082 92.323H163.485C165.845 92.323 167.758 94.2361 167.758 96.5962V110.698C167.758 113.058 165.845 114.971 163.485 114.971H154.269" stroke="white" stroke-width="6" stroke-miterlimit="10" stroke-linecap="round" stroke-linejoin="round"/>
</g>
<g id="g1219">
<path id="path1221" d="M153.656 90.4V116.895C153.656 121.615 149.83 125.441 145.109 125.441H125.314C121.734 125.441 118.465 123.411 116.877 120.203L116.786 120.018C116.051 118.536 114.931 117.33 113.581 116.493C111.677 115.312 109.314 114.862 106.949 115.429C104.394 116.042 102.288 117.848 101.122 120.203C99.535 123.411 96.265 125.441 92.6859 125.441H72.8905C68.1702 125.441 64.3438 121.615 64.3438 116.895V90.4C64.3438 85.6798 68.1702 81.8533 72.8905 81.8533H145.109C149.83 81.8533 153.656 85.6798 153.656 90.4Z" stroke="white" stroke-width="6" stroke-miterlimit="10" stroke-linecap="round" stroke-linejoin="round"/>
</g>
<g id="g1223">
<path id="path1225" d="M100.83 135.52C105.763 139.494 112.662 139.494 117.595 135.52" stroke="white" stroke-width="6" stroke-miterlimit="10" stroke-linecap="round" stroke-linejoin="round"/>
</g>
</g>
</g>
</g>
</g>
</g>
</svg>
