<svg width="218" height="218" viewBox="0 0 218 218" fill="none" xmlns="http://www.w3.org/2000/svg">
<g id="qa (1) 1" clip-path="url(#clip0_1171_13320)">
<path id="Vector" d="M178.034 29.0669H39.9669C38.0396 29.0669 36.1913 29.8325 34.8286 31.1953C33.4658 32.558 32.7002 34.4063 32.7002 36.3336V130.8C32.7002 132.727 33.4658 134.576 34.8286 135.939C36.1913 137.301 38.0396 138.067 39.9669 138.067H178.034C179.961 138.067 181.809 137.301 183.172 135.939C184.535 134.576 185.3 132.727 185.3 130.8V36.3336C185.3 34.4063 184.535 32.558 183.172 31.1953C181.809 29.8325 179.961 29.0669 178.034 29.0669ZM178.034 130.8H39.9669V36.3336H178.034V130.8Z" fill="black"/>
<path id="Vector_2" d="M199.833 148.109V25.4332C199.833 22.5423 198.685 19.7699 196.641 17.7257C194.597 15.6816 191.824 14.5332 188.933 14.5332H29.0667C26.1758 14.5332 23.4034 15.6816 21.3592 17.7257C19.3151 19.7699 18.1667 22.5423 18.1667 25.4332V148.109L0.381502 183.676C0.130085 184.18 -0.000524278 184.736 1.58163e-06 185.3V196.2C1.58163e-06 198.127 0.765595 199.975 2.12836 201.338C3.49112 202.701 5.33943 203.467 7.26667 203.467H210.733C212.661 203.467 214.509 202.701 215.872 201.338C217.234 199.975 218 198.127 218 196.2V185.3C218.006 184.738 217.882 184.182 217.637 183.676L199.833 148.109ZM25.4333 25.4332C25.4333 24.4696 25.8161 23.5454 26.4975 22.864C27.1789 22.1827 28.103 21.7999 29.0667 21.7999H188.933C189.897 21.7999 190.821 22.1827 191.503 22.864C192.184 23.5454 192.567 24.4696 192.567 25.4332V145.333H25.4333V25.4332ZM24.0454 152.6H193.955L208.488 181.667H151.445L145.995 168.067C145.459 166.715 144.528 165.555 143.323 164.741C142.118 163.926 140.695 163.493 139.24 163.5H78.7598C77.306 163.495 75.8845 163.929 74.6809 164.744C73.4773 165.559 72.5474 166.719 72.0127 168.071L66.5736 181.667H9.51207L24.0454 152.6ZM143.604 181.667H74.3998L78.7598 170.767H139.24L143.604 181.667ZM210.733 196.2H7.26667V188.933H210.733V196.2Z" fill="black"/>
<path id="Vector_3" d="M116.267 90.8334C117.231 90.8334 118.155 90.4506 118.836 89.7693C119.518 89.0879 119.9 88.1637 119.9 87.2001V76.3001H141.7V87.2001C141.7 88.1637 142.083 89.0879 142.765 89.7693C143.446 90.4506 144.37 90.8334 145.334 90.8334C146.297 90.8334 147.222 90.4506 147.903 89.7693C148.584 89.0879 148.967 88.1637 148.967 87.2001V61.7668C148.967 56.9487 147.053 52.3279 143.646 48.921C140.239 45.5141 135.619 43.6001 130.8 43.6001C125.982 43.6001 121.362 45.5141 117.955 48.921C114.548 52.3279 112.634 56.9487 112.634 61.7668V87.2001C112.634 88.1637 113.017 89.0879 113.698 89.7693C114.379 90.4506 115.304 90.8334 116.267 90.8334ZM119.9 61.7668C119.9 58.8759 121.049 56.1034 123.093 54.0593C125.137 52.0152 127.91 50.8668 130.8 50.8668C133.691 50.8668 136.464 52.0152 138.508 54.0593C140.552 56.1034 141.7 58.8759 141.7 61.7668V69.0334H119.9V61.7668Z" fill="black"/>
<path id="Vector_4" d="M87.1999 90.8334C90.7595 90.8327 94.2395 89.7797 97.2024 87.8069L99.1644 89.7689C99.8497 90.4307 100.767 90.7969 101.72 90.7887C102.673 90.7804 103.584 90.3983 104.258 89.7246C104.931 89.051 105.313 88.1397 105.322 87.187C105.33 86.2344 104.964 85.3166 104.302 84.6313L102.34 82.6693C104.313 79.7064 105.366 76.2264 105.367 72.6668V61.7668C105.367 56.9487 103.453 52.3279 100.046 48.921C96.6387 45.5141 92.018 43.6001 87.1999 43.6001C82.3818 43.6001 77.761 45.5141 74.3541 48.921C70.9472 52.3279 69.0332 56.9487 69.0332 61.7668V72.6668C69.039 77.4831 70.9548 82.1005 74.3605 85.5062C77.7661 88.9118 82.3835 90.8277 87.1999 90.8334ZM76.2999 61.7668C76.2999 58.8759 77.4483 56.1034 79.4924 54.0593C81.5366 52.0152 84.309 50.8668 87.1999 50.8668C90.0907 50.8668 92.8632 52.0152 94.9073 54.0593C96.9515 56.1034 98.0999 58.8759 98.0999 61.7668V72.6668C98.0936 74.2854 97.721 75.8815 97.0099 77.3356L93.4056 73.7313C92.7204 73.0695 91.8026 72.7033 90.8499 72.7115C89.8973 72.7198 88.986 73.1019 88.3123 73.7756C87.6387 74.4492 87.2566 75.3605 87.2483 76.3132C87.24 77.2658 87.6062 78.1836 88.2681 78.8689L91.8723 82.4731C90.4175 83.186 88.82 83.5599 87.1999 83.5668C84.309 83.5668 81.5366 82.4184 79.4924 80.3742C77.4483 78.3301 76.2999 75.5576 76.2999 72.6668V61.7668Z" fill="black"/>
<path id="Vector_5" d="M117.332 99.1645L101.734 114.762L100.669 113.698C99.9839 113.036 99.0661 112.67 98.1135 112.678C97.1608 112.686 96.2495 113.068 95.5759 113.742C94.9023 114.416 94.5201 115.327 94.5119 116.28C94.5036 117.232 94.8698 118.15 95.5316 118.835L99.165 122.469C99.8463 123.15 100.77 123.532 101.734 123.532C102.697 123.532 103.621 123.15 104.303 122.469L122.469 104.302C123.131 103.617 123.497 102.699 123.489 101.746C123.481 100.794 123.099 99.8824 122.425 99.2087C121.751 98.5351 120.84 98.1529 119.887 98.1447C118.935 98.1364 118.017 98.5026 117.332 99.1645Z" fill="black"/>
</g>
<defs>
<clipPath id="clip0_1171_13320">
<rect width="218" height="218" fill="white"/>
</clipPath>
</defs>
</svg>
