<svg width="218" height="218" viewBox="0 0 218 218" fill="none" xmlns="http://www.w3.org/2000/svg">
<g id="block 1">
<g id="Group">
<g id="Group_2">
<path id="Vector" d="M113.855 100.367L103.155 117.281" stroke="white" stroke-width="6" stroke-miterlimit="10" stroke-linecap="round" stroke-linejoin="round"/>
<path id="Vector_2" d="M91.9392 117.281L83.7871 108.824L91.9392 100.367" stroke="white" stroke-width="6" stroke-miterlimit="10" stroke-linecap="round" stroke-linejoin="round"/>
<path id="Vector_3" d="M125.711 100.367L133.863 108.824L125.711 117.281" stroke="white" stroke-width="6" stroke-miterlimit="10" stroke-linecap="round" stroke-linejoin="round"/>
</g>
<path id="Vector_4" d="M148.552 130.173V72.4987C148.552 70.3413 146.803 68.5924 144.645 68.5924H73.004C70.8465 68.5924 69.0977 70.3413 69.0977 72.4987V144.14C69.0977 146.298 70.8465 148.047 73.004 148.047H130.461" stroke="white" stroke-width="6" stroke-miterlimit="10" stroke-linecap="round" stroke-linejoin="round"/>
<path id="Vector_5" d="M201.014 126.297H173.881C171.723 126.297 169.975 124.548 169.975 122.391V95.2575C169.975 93.1001 171.723 91.3512 173.881 91.3512H201.014C203.171 91.3512 204.92 93.1001 204.92 95.2575V122.391C204.92 124.548 203.171 126.297 201.014 126.297Z" stroke="white" stroke-width="6" stroke-miterlimit="10" stroke-linecap="round" stroke-linejoin="round"/>
<path id="Vector_6" d="M149.623 108.824H167.645" stroke="white" stroke-width="6" stroke-miterlimit="10" stroke-linecap="round" stroke-linejoin="round"/>
<path id="Vector_7" d="M16.6349 91.3516H43.7679C45.9253 91.3516 47.6742 93.1004 47.6742 95.2579V122.391C47.6742 124.548 45.9253 126.297 43.7679 126.297H16.6349C14.4774 126.297 12.7285 124.548 12.7285 122.391V95.2579C12.7285 93.1004 14.4774 91.3516 16.6349 91.3516Z" stroke="white" stroke-width="6" stroke-miterlimit="10" stroke-linecap="round" stroke-linejoin="round"/>
<path id="Vector_8" d="M68.0262 108.824H50.0039" stroke="white" stroke-width="6" stroke-miterlimit="10" stroke-linecap="round" stroke-linejoin="round"/>
<path id="Vector_9" d="M126.297 16.6347V43.7678C126.297 45.9252 124.548 47.6741 122.391 47.6741H95.2579C93.1004 47.6741 91.3516 45.9252 91.3516 43.7678V16.6347C91.3516 14.4773 93.1004 12.7284 95.2579 12.7284H122.391C124.548 12.7284 126.297 14.4773 126.297 16.6347Z" stroke="white" stroke-width="6" stroke-miterlimit="10" stroke-linecap="round" stroke-linejoin="round"/>
<path id="Vector_10" d="M108.824 68.0257V50.0034" stroke="white" stroke-width="6" stroke-miterlimit="10" stroke-linecap="round" stroke-linejoin="round"/>
<path id="Vector_11" d="M91.3525 201.014V173.881C91.3525 171.723 93.1014 169.974 95.2589 169.974H122.392C124.549 169.974 126.298 171.723 126.298 173.881V201.014C126.298 203.171 124.549 204.92 122.392 204.92H95.2589C93.1014 204.92 91.3525 203.171 91.3525 201.014Z" stroke="white" stroke-width="6" stroke-miterlimit="10" stroke-linecap="round" stroke-linejoin="round"/>
<path id="Vector_12" d="M108.824 149.623V167.645" stroke="white" stroke-width="6" stroke-miterlimit="10" stroke-linecap="round" stroke-linejoin="round"/>
<path id="Vector_13" d="M47.6742 16.6347V43.7678C47.6742 45.9252 45.9253 47.6741 43.7679 47.6741H16.6349C14.4774 47.6741 12.7285 45.9252 12.7285 43.7678V16.6347C12.7285 14.4773 14.4774 12.7284 16.6349 12.7284H43.7679C45.9253 12.7284 47.6742 14.4773 47.6742 16.6347Z" stroke="white" stroke-width="6" stroke-miterlimit="10" stroke-linecap="round" stroke-linejoin="round"/>
<path id="Vector_14" d="M30.2012 50.0034V89.6566" stroke="white" stroke-width="6" stroke-miterlimit="10" stroke-linecap="round" stroke-linejoin="round"/>
<path id="Vector_15" d="M50.0039 30.2009H89.2763" stroke="white" stroke-width="6" stroke-miterlimit="10" stroke-linecap="round" stroke-linejoin="round"/>
<path id="Vector_16" d="M169.975 16.6347V43.7678C169.975 45.9252 171.723 47.6741 173.881 47.6741H201.014C203.171 47.6741 204.92 45.9252 204.92 43.7678V16.6347C204.92 14.4773 203.171 12.7284 201.014 12.7284H173.881C171.723 12.7284 169.975 14.4773 169.975 16.6347Z" stroke="white" stroke-width="6" stroke-miterlimit="10" stroke-linecap="round" stroke-linejoin="round"/>
<path id="Vector_17" d="M187.448 50.0034V89.6566" stroke="white" stroke-width="6" stroke-miterlimit="10" stroke-linecap="round" stroke-linejoin="round"/>
<path id="Vector_18" d="M167.646 30.2009H128.374" stroke="white" stroke-width="6" stroke-miterlimit="10" stroke-linecap="round" stroke-linejoin="round"/>
<path id="Vector_19" d="M47.6742 201.014V173.881C47.6742 171.723 45.9253 169.974 43.7679 169.974H16.6349C14.4774 169.974 12.7285 171.723 12.7285 173.881V201.014C12.7285 203.171 14.4774 204.92 16.6349 204.92H43.7679C45.9253 204.92 47.6742 203.171 47.6742 201.014Z" stroke="white" stroke-width="6" stroke-miterlimit="10" stroke-linecap="round" stroke-linejoin="round"/>
<path id="Vector_20" d="M30.2012 167.645V127.992" stroke="white" stroke-width="6" stroke-miterlimit="10" stroke-linecap="round" stroke-linejoin="round"/>
<path id="Vector_21" d="M50.0039 187.447H89.2763" stroke="white" stroke-width="6" stroke-miterlimit="10" stroke-linecap="round" stroke-linejoin="round"/>
<path id="Vector_22" d="M169.975 201.014V173.881C169.975 171.723 171.723 169.974 173.881 169.974H201.014C203.171 169.974 204.92 171.723 204.92 173.881V201.014C204.92 203.171 203.171 204.92 201.014 204.92H173.881C171.723 204.92 169.975 203.171 169.975 201.014Z" stroke="white" stroke-width="6" stroke-miterlimit="10" stroke-linecap="round" stroke-linejoin="round"/>
<path id="Vector_23" d="M187.448 167.645V127.992" stroke="white" stroke-width="6" stroke-miterlimit="10" stroke-linecap="round" stroke-linejoin="round"/>
<path id="Vector_24" d="M167.646 187.447H128.374" stroke="white" stroke-width="6" stroke-miterlimit="10" stroke-linecap="round" stroke-linejoin="round"/>
</g>
</g>
</svg>
