<svg width="218" height="218" viewBox="0 0 218 218" fill="none" xmlns="http://www.w3.org/2000/svg">
<g id="coding (1) 1">
<g id="g4140">
<g id="g4142">
<g id="Clip path group">
<mask id="mask0_1171_12866" style="mask-type:luminance" maskUnits="userSpaceOnUse" x="0" y="0" width="218" height="218">
<g id="clipPath4148">
<path id="path4146" d="M0 1.52588e-05H218V218H0V1.52588e-05Z" fill="white"/>
</g>
</mask>
<g mask="url(#mask0_1171_12866)">
<g id="g4144">
<g id="g4150">
<path id="path4152" d="M4.25781 66.135H71.0608H198.209" stroke="black" stroke-width="6" stroke-miterlimit="10" stroke-linecap="round" stroke-linejoin="round"/>
</g>
<g id="g4154">
<path id="path4156" d="M39.8132 48.0166C45.3893 48.0166 49.9392 43.4812 49.9392 37.9081C49.9392 32.3351 45.3893 27.7997 39.8132 27.7997C34.2495 27.7997 29.6992 32.3351 29.6992 37.9081C29.6992 43.4812 34.2495 48.0166 39.8132 48.0166Z" stroke="black" stroke-width="6" stroke-miterlimit="10" stroke-linecap="round" stroke-linejoin="round"/>
</g>
<g id="g4158">
<path id="path4160" d="M127.714 27.7994H165.804C171.368 27.7994 175.918 32.3472 175.918 37.9079C175.918 43.469 171.368 48.0164 165.804 48.0164H127.714C122.15 48.0164 117.6 43.469 117.6 37.9079C117.6 32.3472 122.15 27.7994 127.714 27.7994Z" stroke="black" stroke-width="6" stroke-miterlimit="10" stroke-linecap="round" stroke-linejoin="round"/>
</g>
<g id="g4162">
<path id="path4164" d="M77.156 48.0166C82.732 48.0166 87.2819 43.4812 87.2819 37.9081C87.2819 32.3351 82.732 27.7997 77.156 27.7997C71.5923 27.7997 67.042 32.3351 67.042 37.9081C67.042 43.4812 71.5923 48.0166 77.156 48.0166Z" stroke="black" stroke-width="6" stroke-miterlimit="10" stroke-linecap="round" stroke-linejoin="round"/>
</g>
<g id="g4166">
<path id="path4168" d="M69.154 98.8853L60.6328 134.543" stroke="black" stroke-width="6" stroke-miterlimit="10" stroke-linecap="round" stroke-linejoin="round"/>
</g>
<g id="g4170">
<path id="path4172" d="M88.7783 131.323L100.835 117.788C101.366 117.197 101.366 116.232 100.835 115.641L88.7783 102.106" stroke="black" stroke-width="6" stroke-miterlimit="10" stroke-linecap="round" stroke-linejoin="round"/>
</g>
<g id="g4174">
<path id="path4176" d="M41.0091 131.323L28.9522 117.788C28.4209 117.197 28.4209 116.232 28.9522 115.641L41.0091 102.106" stroke="black" stroke-width="6" stroke-miterlimit="10" stroke-linecap="round" stroke-linejoin="round"/>
</g>
<g id="g4178">
<path id="path4180" d="M172.237 117.703C176.895 118.741 181.252 120.574 185.175 123.035L188.663 119.561C190.727 117.486 194.118 117.486 196.194 119.561L201.685 125.05C203.761 127.124 203.761 130.514 201.685 132.577L198.209 136.063C200.66 139.947 202.47 144.266 203.52 148.874H208.408C211.341 148.874 213.742 151.274 213.742 154.194V161.974C213.742 164.893 211.341 167.294 208.408 167.294H203.496C202.445 171.877 200.635 176.172 198.209 180.032L201.685 183.506C203.761 185.581 203.761 188.97 201.685 191.033L196.194 196.534C194.118 198.609 190.727 198.609 188.663 196.534L185.175 193.06C181.301 195.496 176.992 197.306 172.381 198.356V203.301C172.381 206.233 169.98 208.633 167.059 208.633H159.275C156.353 208.633 153.952 206.233 153.952 203.301V198.344C149.365 197.306 145.057 195.485 141.182 193.06L137.707 196.534C135.63 198.609 132.24 198.609 130.175 196.534L124.672 191.033C122.608 188.97 122.608 185.581 124.672 183.506L128.16 180.032C125.722 176.172 123.912 171.877 122.862 167.294H117.925C114.993 167.294 112.603 164.893 112.603 161.974V154.194C112.603 151.274 114.993 148.874 117.925 148.874H122.85C123.887 144.314 125.674 140.044 128.075 136.196L124.576 132.686C122.5 130.623 122.5 127.233 124.576 125.158L130.067 119.669C132.143 117.595 135.534 117.595 137.598 119.669L141.062 123.12C144.924 120.671 149.221 118.849 153.807 117.776V112.866C153.807 109.935 156.197 107.534 159.129 107.534H166.902C169.835 107.534 172.237 109.935 172.237 112.866V117.703Z" stroke="black" stroke-width="6" stroke-miterlimit="10" stroke-linecap="round" stroke-linejoin="round"/>
</g>
<g id="g4182">
<path id="path4184" d="M163.173 136.147C175.29 136.147 185.115 145.967 185.115 158.089C185.115 170.201 175.29 180.02 163.173 180.02C151.044 180.02 141.219 170.201 141.219 158.089C141.219 145.967 151.044 136.147 163.173 136.147Z" stroke="black" stroke-width="6" stroke-miterlimit="10" stroke-linecap="round" stroke-linejoin="round"/>
</g>
<g id="g4186">
<path id="path4188" d="M45.3172 167.293H20.1165C11.4033 167.293 4.25781 158.765 4.25781 148.355V28.3057C4.25781 17.8838 11.3905 9.36737 20.1165 9.36737H38.4859H182.351C191.077 9.36737 198.209 17.8958 198.209 28.3057V121.576M117.925 167.293H83.3714" stroke="black" stroke-width="6" stroke-miterlimit="10" stroke-linecap="round" stroke-linejoin="round"/>
</g>
<g id="g4190">
<path id="path4192" d="M64.3867 167.293H64.471" stroke="black" stroke-width="6" stroke-miterlimit="10" stroke-linecap="round" stroke-linejoin="round"/>
</g>
</g>
</g>
</g>
</g>
</g>
</g>
</svg>
