<svg width="218" height="218" viewBox="0 0 218 218" fill="none" xmlns="http://www.w3.org/2000/svg">
<g id="design 1">
<g id="Group">
<g id="Group_2">
<path id="Vector" d="M125.749 39.8499L125.748 39.8498L125.744 39.8619L102.929 101.526C102.245 103.315 103.153 105.233 104.904 105.91C105.285 106.061 105.703 106.124 106.093 106.124C107.518 106.124 108.824 105.243 109.31 103.866L132.173 42.2523L132.177 42.242L132.181 42.2315C132.794 40.459 131.9 38.5472 130.141 37.8706C128.349 37.1812 126.424 38.0926 125.749 39.8499Z" fill="white" stroke="white" stroke-width="2"/>
</g>
<g id="Group_3">
<path id="Vector_2" d="M36.4473 80.0303C36.4473 88.09 43.3378 94.5948 51.7384 94.5948C60.1293 94.5948 67.08 88.1467 67.0295 80.0272V52.8045C67.0295 50.8958 65.516 49.3823 63.6073 49.3823C61.6985 49.3823 60.185 50.8958 60.185 52.8045V80.0303C60.185 84.1994 56.4474 87.7503 51.7384 87.7503C47.0294 87.7503 43.2917 84.1994 43.2917 80.0303V52.8045C43.2917 50.8958 41.7782 49.3823 39.8695 49.3823C37.9608 49.3823 36.4473 50.8958 36.4473 52.8045V80.0303Z" fill="white" stroke="white" stroke-width="2"/>
</g>
<g id="Group_4">
<path id="Vector_3" d="M73.4979 94.1834L73.5123 94.1912L73.527 94.1985C74.0369 94.4534 74.5766 94.5947 75.1369 94.5947C76.3448 94.5947 77.5256 93.9836 78.1504 92.8065C78.151 92.8053 78.1516 92.8042 78.1522 92.8031L98.9799 54.1509L98.9834 54.1444L98.9868 54.1379C99.8599 52.4588 99.2653 50.4013 97.607 49.503L97.5995 49.499L97.592 49.4951C95.913 48.622 93.8554 49.2165 92.9571 50.8749L92.9561 50.8768L72.125 89.5355L72.1215 89.542L72.1181 89.5485C71.245 91.2275 71.8395 93.2851 73.4979 94.1834Z" fill="white" stroke="white" stroke-width="2"/>
</g>
<g id="Group_5">
<path id="Vector_4" d="M78.1488 50.8768L78.1477 50.8749C77.2513 49.22 75.1395 48.6138 73.4979 49.503C71.8433 50.3992 71.2371 52.5103 72.1255 54.1518C72.1257 54.1521 72.1259 54.1525 72.126 54.1528L92.9527 92.8031C92.9532 92.8041 92.9538 92.8052 92.9544 92.8063C93.5792 93.9835 94.76 94.5947 95.968 94.5947C96.5283 94.5947 97.068 94.4534 97.5779 94.1985L97.5925 94.1912L97.6069 94.1834C99.2619 93.2869 99.8681 91.1752 98.9788 89.5336L78.1488 50.8768Z" fill="white" stroke="white" stroke-width="2"/>
</g>
<g id="Group_6">
<path id="Vector_5" d="M135.71 80.0303C135.71 88.09 142.6 94.5948 151.001 94.5948C159.399 94.5948 166.292 88.1407 166.292 80.0303V52.8045C166.292 50.8958 164.779 49.3823 162.87 49.3823C160.961 49.3823 159.448 50.8958 159.448 52.8045V80.0303C159.448 84.1994 155.71 87.7503 151.001 87.7503C146.292 87.7503 142.554 84.1994 142.554 80.0303V52.8045C142.554 50.8958 141.041 49.3823 139.132 49.3823C137.223 49.3823 135.71 50.8958 135.71 52.8045V80.0303Z" fill="white" stroke="white" stroke-width="2"/>
</g>
<g id="Group_7">
<path id="Vector_6" d="M174.95 93.7885C174.95 95.6972 176.464 97.2107 178.372 97.2107C180.281 97.2107 181.795 95.6972 181.795 93.7885V49.8978C181.795 47.9891 180.281 46.4756 178.372 46.4756C176.464 46.4756 174.95 47.9891 174.95 49.8978V93.7885Z" fill="white" stroke="white" stroke-width="2"/>
</g>
</g>
<g id="Group_8">
<g id="Group_9">
<path id="Vector_7" d="M78.043 148.82C78.043 153.393 81.7614 157.112 86.335 157.112C90.9086 157.112 94.627 153.393 94.627 148.82C94.627 144.246 90.9086 140.528 86.335 140.528C81.7614 140.528 78.043 144.246 78.043 148.82ZM83.7654 148.82C83.7654 147.396 84.9111 146.25 86.335 146.25C87.7589 146.25 88.9046 147.396 88.9046 148.82C88.9046 150.244 87.7589 151.389 86.335 151.389C84.9111 151.389 83.7654 150.244 83.7654 148.82Z" fill="white" stroke="white"/>
</g>
<g id="Group_10">
<path id="Vector_8" d="M100.854 148.82C100.854 153.393 104.572 157.112 109.146 157.112C113.719 157.112 117.438 153.393 117.438 148.82C117.438 144.246 113.719 140.528 109.146 140.528C104.572 140.528 100.854 144.246 100.854 148.82ZM106.576 148.82C106.576 147.396 107.722 146.25 109.146 146.25C110.569 146.25 111.715 147.396 111.715 148.82C111.715 150.244 110.569 151.389 109.146 151.389C107.722 151.389 106.576 150.244 106.576 148.82Z" fill="white" stroke="white"/>
</g>
<g id="Group_11">
<path id="Vector_9" d="M123.615 148.82C123.615 153.393 127.334 157.112 131.907 157.112C136.481 157.112 140.199 153.393 140.199 148.82C140.199 144.246 136.481 140.528 131.907 140.528C127.334 140.528 123.615 144.246 123.615 148.82ZM129.338 148.82C129.338 147.396 130.483 146.25 131.907 146.25C133.331 146.25 134.477 147.396 134.477 148.82C134.477 150.244 133.331 151.389 131.907 151.389C130.483 151.389 129.338 150.244 129.338 148.82Z" fill="white" stroke="white"/>
</g>
<g id="Group_12">
<path id="Vector_10" d="M198.325 16.9453V16.9495H198.825C204.026 16.9495 208.242 21.1647 208.242 26.3666V153.778C208.242 158.98 204.026 163.195 198.825 163.195H19.4189C14.217 163.195 10.0017 158.98 10.0017 153.778V26.3194C10.0017 21.1175 14.217 16.9023 19.4189 16.9023V16.4023C19.4189 16.9023 19.4196 16.9023 19.4209 16.9023H19.4271H19.4516H19.5489L19.9335 16.9023L21.4337 16.9023L27.1277 16.9024C32.0333 16.9025 39.0413 16.9026 47.451 16.903C64.2703 16.9037 86.6959 16.9052 109.122 16.9082C131.547 16.9111 153.973 16.9156 170.792 16.9222C179.202 16.9255 186.21 16.9294 191.115 16.9339C193.568 16.9362 195.495 16.9386 196.809 16.9412C197.466 16.9425 197.969 16.9438 198.308 16.9452C198.313 16.9452 198.319 16.9452 198.325 16.9453ZM19.4189 168.965H198.825C207.172 168.965 214.012 162.18 213.964 153.825C213.964 153.824 213.964 153.823 213.964 153.822L213.964 26.3666C213.964 18.0151 207.176 11.2271 198.825 11.2271H19.4189C11.0674 11.2271 4.2793 18.0151 4.2793 26.3666V153.825C4.2793 162.177 11.0674 168.965 19.4189 168.965Z" fill="white" stroke="white"/>
</g>
<g id="Group_13">
<path id="Vector_11" d="M7.14052 134.397H211.15C212.695 134.397 214.011 133.14 214.011 131.536C214.011 129.937 212.749 128.674 211.15 128.674H7.14052C5.54209 128.674 4.2793 129.937 4.2793 131.536C4.2793 133.134 5.54209 134.397 7.14052 134.397Z" fill="white" stroke="white"/>
</g>
<g id="Group_14">
<path id="Vector_12" d="M143.969 187.874C143.969 189.473 145.232 190.735 146.83 190.735C148.429 190.735 149.691 189.473 149.691 187.874V166.057C149.691 164.458 148.429 163.195 146.83 163.195C145.232 163.195 143.969 164.458 143.969 166.057V187.874ZM69.6377 187.874C69.6377 189.473 70.9005 190.735 72.4989 190.735C74.0973 190.735 75.3601 189.473 75.3601 187.874V166.057C75.3601 164.458 74.0973 163.195 72.4989 163.195C70.9005 163.195 69.6377 164.458 69.6377 166.057V187.874Z" fill="white" stroke="white"/>
</g>
<g id="Group_15">
<path id="Vector_13" d="M58.5201 207.5H159.722C165.903 207.5 170.942 202.458 170.942 196.233C170.942 190.005 165.853 184.966 159.675 184.966H58.5201C52.2923 184.966 47.2529 190.055 47.2529 196.233C47.2529 202.459 52.2937 207.5 58.5201 207.5ZM52.9754 196.28C52.9754 193.206 55.488 190.735 58.5201 190.735H159.675C162.752 190.735 165.22 193.203 165.22 196.28C165.22 199.354 162.707 201.825 159.675 201.825H58.5201C55.4433 201.825 52.9754 199.357 52.9754 196.28Z" fill="white" stroke="white"/>
</g>
</g>
</g>
</svg>
