<svg width="218" height="218" viewBox="0 0 218 218" fill="none" xmlns="http://www.w3.org/2000/svg">
<g id="innovation 1">
<g id="g2004">
<g id="g2006">
<path id="path2008" d="M35.9336 82.1459L48.5056 50.0181L61.0658 82.1459" stroke="white" stroke-width="6" stroke-miterlimit="10" stroke-linecap="round" stroke-linejoin="round"/>
</g>
<g id="g2010">
<path id="path2012" d="M75.999 82.1459V50.0181" stroke="white" stroke-width="6" stroke-miterlimit="10" stroke-linecap="round" stroke-linejoin="round"/>
</g>
<g id="g2014">
<path id="path2016" d="M39.1338 73.991H57.878" stroke="white" stroke-width="6" stroke-miterlimit="10" stroke-linecap="round" stroke-linejoin="round"/>
</g>
<g id="g2018">
<g id="Clip path group">
<mask id="mask0_1171_12137" style="mask-type:luminance" maskUnits="userSpaceOnUse" x="0" y="0" width="218" height="218">
<g id="clipPath2024">
<path id="path2022" d="M0 1.52588e-05H218V218H0V1.52588e-05Z" fill="white"/>
</g>
</mask>
<g mask="url(#mask0_1171_12137)">
<g id="g2020">
<g id="g2026">
<path id="path2028" d="M202.285 15.0721C207.966 15.0721 212.58 19.6769 212.58 25.3615C212.58 31.0461 207.966 35.6514 202.285 35.6514C196.604 35.6514 192.002 31.0461 192.002 25.3615C192.002 19.6769 196.604 15.0721 202.285 15.0721Z" stroke="white" stroke-width="6" stroke-miterlimit="10" stroke-linecap="round" stroke-linejoin="round"/>
</g>
<g id="g2030">
<path id="path2032" d="M192.002 25.3615H175.726" stroke="white" stroke-width="6" stroke-miterlimit="10" stroke-linecap="round" stroke-linejoin="round"/>
</g>
<g id="g2034">
<path id="path2036" d="M175.726 25.3615L171.436 43.926" stroke="white" stroke-width="6" stroke-miterlimit="10" stroke-linecap="round" stroke-linejoin="round"/>
</g>
<g id="g2038">
<path id="path2040" d="M203.458 59.8038C209.14 59.8038 213.741 64.421 213.741 70.1052C213.741 75.7898 209.14 80.395 203.458 80.395C197.778 80.395 193.176 75.7898 193.176 70.1052C193.176 64.421 197.778 59.8038 203.458 59.8038Z" stroke="white" stroke-width="6" stroke-miterlimit="10" stroke-linecap="round" stroke-linejoin="round"/>
</g>
<g id="g2042">
<path id="path2044" d="M171.435 96.2729H136.787" stroke="white" stroke-width="6" stroke-miterlimit="10" stroke-linecap="round" stroke-linejoin="round"/>
</g>
<g id="g2046">
<path id="path2048" d="M193.176 70.1053L131.31 70.0934" stroke="white" stroke-width="6" stroke-miterlimit="10" stroke-linecap="round" stroke-linejoin="round"/>
</g>
<g id="g2050">
<path id="path2052" d="M171.435 43.9258H136.787" stroke="white" stroke-width="6" stroke-miterlimit="10" stroke-linecap="round" stroke-linejoin="round"/>
</g>
<g id="g2054">
<path id="path2056" d="M202.285 125.127C207.966 125.127 212.58 120.522 212.58 114.837C212.58 109.153 207.966 104.536 202.285 104.536C196.604 104.536 192.002 109.153 192.002 114.837C192.002 120.522 196.604 125.127 202.285 125.127Z" stroke="white" stroke-width="6" stroke-miterlimit="10" stroke-linecap="round" stroke-linejoin="round"/>
</g>
<g id="g2058">
<path id="path2060" d="M192.002 114.837H175.726" stroke="white" stroke-width="6" stroke-miterlimit="10" stroke-linecap="round" stroke-linejoin="round"/>
</g>
<g id="g2062">
<path id="path2064" d="M175.726 114.837L171.436 96.2728" stroke="white" stroke-width="6" stroke-miterlimit="10" stroke-linecap="round" stroke-linejoin="round"/>
</g>
<g id="g2066">
<path id="path2068" d="M48.6017 22.5793C43.2807 23.7783 38.3067 25.8774 33.8488 28.7076L30.6486 25.5057C28.9706 23.8264 26.226 23.8264 24.548 25.5057L16.0026 34.0563C14.325 35.7351 14.325 38.4814 16.0026 40.1603L19.2027 43.3621C16.3747 47.8235 14.2773 52.8004 13.0783 58.1248H8.57226C6.19895 58.1248 4.25781 60.0677 4.25781 62.4423V74.5306C4.25781 76.9052 6.19895 78.848 8.57226 78.848H13.0783C14.2773 84.1724 16.3747 89.1494 19.2027 93.6107L16.0026 96.8126C14.325 98.4914 14.325 101.238 16.0026 102.917L24.548 111.468C26.226 113.146 28.9706 113.146 30.6486 111.468L33.8488 108.265C38.3067 111.096 43.2807 113.194 48.6017 114.394V118.903C48.6017 121.277 50.5436 123.22 52.9165 123.22H64.9972C67.3701 123.22 69.3121 121.277 69.3121 118.903V114.394C74.6331 113.194 79.6066 111.096 84.065 108.265L87.2651 111.468C88.9431 113.146 91.6873 113.146 93.3657 111.468L101.911 102.917C103.589 101.238 103.589 98.4914 101.911 96.8126L98.711 93.6107C101.539 89.1494 103.636 84.1724 104.835 78.848H109.341C111.715 78.848 113.656 76.9052 113.656 74.5306V62.4423C113.656 60.0677 111.715 58.1248 109.341 58.1248H104.835C103.636 52.8004 101.539 47.8235 98.711 43.3621L101.911 40.1603C103.589 38.4814 103.589 35.7351 101.911 34.0563L93.3657 25.5057C91.6873 23.8264 88.9431 23.8264 87.2651 25.5057L84.065 28.7076C79.6066 25.8774 74.6331 23.7783 69.3121 22.5793V18.0703C69.3121 15.6957 67.3701 13.7529 64.9972 13.7529H52.9165C50.5436 13.7529 48.6017 15.6957 48.6017 18.0703V22.5793Z" stroke="white" stroke-width="6" stroke-miterlimit="10" stroke-linecap="round" stroke-linejoin="round"/>
</g>
<g id="g2070">
<path id="path2072" d="M59.6396 123.22C64.7452 130.703 69.1197 138.858 70.7014 149.891M112.853 7.08532C108.43 6.13796 103.936 5.69386 99.4536 5.75389C88.3318 5.59806 77.1018 8.59641 67.2858 14.4126M128.193 149.891C132.867 117.26 162.051 109.885 162.003 70.0937C161.991 51.2652 155.279 36.0589 145.044 25.1695" stroke="white" stroke-width="6" stroke-miterlimit="10" stroke-linecap="round" stroke-linejoin="round"/>
</g>
<g id="g2074">
<path id="path2076" d="M130.255 13.6329L130.23 13.621" stroke="white" stroke-width="6" stroke-miterlimit="10" stroke-linecap="round" stroke-linejoin="round"/>
</g>
<g id="g2078">
<path id="path2080" d="M123.819 187.535V199.9C123.819 206.699 118.258 212.252 111.463 212.252H87.4331C80.6496 212.252 75.0889 206.699 75.0889 199.9V187.535" stroke="white" stroke-width="6" stroke-miterlimit="10" stroke-linecap="round" stroke-linejoin="round"/>
</g>
<g id="g2082">
<path id="path2084" d="M74.1294 149.867H124.777C129.955 149.867 134.186 154.101 134.186 159.281C134.186 164.462 129.955 168.708 124.777 168.708H74.1294C68.9519 168.708 64.709 164.462 64.709 159.281C64.709 154.101 68.9519 149.867 74.1294 149.867Z" stroke="white" stroke-width="6" stroke-miterlimit="10" stroke-linecap="round" stroke-linejoin="round"/>
</g>
<g id="g2086">
<path id="path2088" d="M124.777 168.707C129.955 168.707 134.186 172.94 134.186 178.121C134.186 183.302 129.955 187.535 124.777 187.535H74.1294C68.9519 187.535 64.709 183.302 64.709 178.121C64.709 172.94 68.9519 168.707 74.1294 168.707" stroke="white" stroke-width="6" stroke-miterlimit="10" stroke-linecap="round" stroke-linejoin="round"/>
</g>
</g>
</g>
</g>
</g>
</g>
</g>
</svg>
