<svg width="210" height="210" viewBox="0 0 210 210" fill="none" xmlns="http://www.w3.org/2000/svg">
<g id="internet-of-things 1" clip-path="url(#clip0_1171_13231)">
<g id="Internet of things">
<path id="Vector" d="M105 114.844C103.053 114.844 101.15 115.421 99.5311 116.503C97.9123 117.584 96.6506 119.122 95.9056 120.92C95.1605 122.719 94.9656 124.698 95.3454 126.608C95.7252 128.517 96.6627 130.271 98.0394 131.648C99.4161 133.025 101.17 133.962 103.08 134.342C104.989 134.722 106.968 134.527 108.767 133.782C110.566 133.037 112.103 131.775 113.185 130.156C114.266 128.538 114.844 126.634 114.844 124.688C114.844 122.077 113.807 119.573 111.961 117.727C110.115 115.881 107.611 114.844 105 114.844ZM105 127.969C104.351 127.969 103.717 127.776 103.177 127.416C102.637 127.055 102.217 126.543 101.969 125.943C101.72 125.344 101.655 124.684 101.782 124.047C101.908 123.411 102.221 122.826 102.68 122.367C103.139 121.908 103.723 121.596 104.36 121.469C104.996 121.343 105.656 121.408 106.256 121.656C106.855 121.904 107.368 122.325 107.728 122.865C108.089 123.404 108.281 124.039 108.281 124.688C108.281 125.558 107.936 126.392 107.32 127.008C106.705 127.623 105.87 127.969 105 127.969Z" fill="white"/>
<path id="Vector_2" d="M105 101.719C101.057 101.701 97.1765 102.709 93.7396 104.642C90.3028 106.575 87.4271 109.368 85.3944 112.747C84.9427 113.491 84.8052 114.384 85.0119 115.23C85.2187 116.075 85.7528 116.804 86.4969 117.255C87.2409 117.707 88.134 117.845 88.9794 117.638C89.8249 117.431 90.5537 116.897 91.0053 116.153C92.4659 113.75 94.5207 111.763 96.9718 110.385C99.4229 109.006 102.188 108.282 105 108.282C107.812 108.282 110.577 109.006 113.028 110.385C115.479 111.763 117.534 113.75 118.994 116.153C119.446 116.897 120.175 117.431 121.02 117.638C121.866 117.845 122.759 117.707 123.503 117.255C124.247 116.804 124.781 116.075 124.988 115.23C125.195 114.384 125.057 113.491 124.605 112.747C122.573 109.368 119.697 106.575 116.26 104.642C112.823 102.709 108.943 101.701 105 101.719Z" fill="white"/>
<path id="Vector_3" d="M105 88.5937C99.3934 88.5755 93.8607 89.8721 88.846 92.3794C83.8313 94.8868 79.4744 98.535 76.125 103.031C75.6029 103.727 75.3787 104.602 75.5017 105.464C75.6248 106.325 76.0851 107.103 76.7813 107.625C77.4775 108.147 78.3526 108.371 79.2141 108.248C80.0756 108.125 80.8529 107.665 81.375 106.969C84.1258 103.301 87.6927 100.324 91.7932 98.2739C95.8938 96.2236 100.415 95.1562 105 95.1562C109.585 95.1562 114.106 96.2236 118.207 98.2739C122.307 100.324 125.874 103.301 128.625 106.969C128.884 107.313 129.207 107.604 129.578 107.823C129.949 108.043 130.359 108.187 130.786 108.248C131.213 108.309 131.647 108.285 132.064 108.179C132.482 108.072 132.874 107.883 133.219 107.625C133.563 107.366 133.854 107.043 134.073 106.672C134.293 106.301 134.437 105.891 134.498 105.464C134.559 105.037 134.536 104.603 134.429 104.186C134.322 103.768 134.134 103.376 133.875 103.031C130.526 98.535 126.169 94.8868 121.154 92.3794C116.139 89.8721 110.607 88.5755 105 88.5937Z" fill="white"/>
<path id="Vector_4" d="M105 82.0311C111.329 82.0195 117.58 83.4255 123.294 86.1458C129.009 88.8662 134.041 92.8318 138.022 97.7516C138.294 98.0859 138.629 98.3635 139.009 98.5684C139.388 98.7732 139.804 98.9014 140.232 98.9456C140.661 98.9898 141.094 98.9491 141.507 98.8258C141.92 98.7026 142.305 98.4992 142.639 98.2273C142.974 97.9554 143.251 97.6203 143.456 97.2412C143.661 96.862 143.789 96.4462 143.833 96.0175C143.877 95.5888 143.837 95.1556 143.713 94.7426C143.59 94.3297 143.387 93.945 143.115 93.6106C138.51 87.9433 132.7 83.3742 126.106 80.2359C119.513 77.0976 112.302 75.4692 105 75.4692C97.6977 75.4692 90.4874 77.0976 83.8939 80.2359C77.3004 83.3742 71.4898 87.9433 66.885 93.6106C66.3359 94.2859 66.0775 95.1517 66.1667 96.0175C66.2559 96.8833 66.6855 97.6782 67.3608 98.2273C68.0361 98.7765 68.9019 99.0348 69.7677 98.9456C70.6335 98.8564 71.4284 98.4269 71.9775 97.7516C75.9587 92.8318 80.9913 88.8662 86.7057 86.1458C92.42 83.4255 98.6711 82.0195 105 82.0311Z" fill="white"/>
<path id="Vector_5" d="M160.614 108.281H177.516C178.329 112.265 180.592 115.804 183.867 118.214C187.141 120.624 191.194 121.732 195.239 121.323C199.284 120.914 203.034 119.018 205.76 116.002C208.487 112.987 209.997 109.066 209.997 105C209.997 100.934 208.487 97.0133 205.76 93.9974C203.034 90.9814 199.284 89.0854 195.239 88.6767C191.194 88.2681 187.141 89.376 183.867 91.7857C180.592 94.1953 178.329 97.7351 177.516 101.719H160.614C159.892 89.2251 154.966 77.3429 146.636 68.0038L167.672 46.9611C172.962 51.0729 179.621 53.0134 186.292 52.3875C192.963 51.7617 199.145 48.6165 203.579 43.5925C208.012 38.5685 210.364 32.0435 210.155 25.3463C209.946 18.6491 207.192 12.2834 202.454 7.54548C197.716 2.80755 191.351 0.053736 184.653 -0.155155C177.956 -0.364047 171.431 1.98769 166.407 6.42114C161.383 10.8546 158.238 17.0363 157.612 23.7075C156.986 30.3786 158.927 37.0375 163.039 42.328L141.996 63.3707C132.658 55.0381 120.776 50.1094 108.281 49.386V32.4843C112.265 31.6711 115.804 29.4078 118.214 26.1331C120.624 22.8584 121.732 18.8057 121.323 14.7605C120.914 10.7154 119.018 6.96607 116.002 4.23948C112.987 1.51288 109.066 0.0032431 105 0.0032431C100.934 0.0032431 97.0133 1.51288 93.9974 4.23948C90.9814 6.96607 89.0854 10.7154 88.6767 14.7605C88.2681 18.8057 89.376 22.8584 91.7857 26.1331C94.1953 29.4078 97.7351 31.6711 101.719 32.4843V49.3893C89.2251 50.1109 77.3429 55.0372 68.0038 63.3674L46.9611 42.328C51.0729 37.0375 53.0134 30.3786 52.3875 23.7075C51.7617 17.0363 48.6165 10.8546 43.5925 6.42114C38.5685 1.98769 32.0435 -0.364047 25.3463 -0.155155C18.6491 0.053736 12.2834 2.80755 7.54548 7.54548C2.80755 12.2834 0.053736 18.6491 -0.155155 25.3463C-0.364047 32.0435 1.98769 38.5685 6.42114 43.5925C10.8546 48.6165 17.0363 51.7617 23.7075 52.3875C30.3786 53.0134 37.0375 51.0729 42.328 46.9611L63.3707 68.0038C55.0381 77.342 50.1094 89.2243 49.386 101.719H32.4843C31.6711 97.7351 29.4078 94.1953 26.1331 91.7857C22.8584 89.376 18.8057 88.2681 14.7605 88.6767C10.7154 89.0854 6.96607 90.9814 4.23948 93.9974C1.51288 97.0133 0.0032431 100.934 0.0032431 105C0.0032431 109.066 1.51288 112.987 4.23948 116.002C6.96607 119.018 10.7154 120.914 14.7605 121.323C18.8057 121.732 22.8584 120.624 26.1331 118.214C29.4078 115.804 31.6711 112.265 32.4843 108.281H49.3893C50.1109 120.775 55.0372 132.657 63.3674 141.996L42.328 163.039C37.0375 158.927 30.3786 156.986 23.7075 157.612C17.0363 158.238 10.8546 161.383 6.42114 166.407C1.98769 171.431 -0.364047 177.956 -0.155155 184.653C0.053736 191.351 2.80755 197.716 7.54548 202.454C12.2834 207.192 18.6491 209.946 25.3463 210.155C32.0435 210.364 38.5685 208.012 43.5925 203.579C48.6165 199.145 51.7617 192.963 52.3875 186.292C53.0134 179.621 51.0729 172.962 46.9611 167.672L68.0038 146.629C77.342 154.962 89.2243 159.89 101.719 160.614V177.516C97.7351 178.329 94.1953 180.592 91.7857 183.867C89.376 187.141 88.2681 191.194 88.6767 195.239C89.0854 199.284 90.9814 203.034 93.9974 205.76C97.0133 208.487 100.934 209.997 105 209.997C109.066 209.997 112.987 208.487 116.002 205.76C119.018 203.034 120.914 199.284 121.323 195.239C121.732 191.194 120.624 187.141 118.214 183.867C115.804 180.592 112.265 178.329 108.281 177.516V160.614C120.775 159.892 132.657 154.966 141.996 146.636L163.039 167.672C158.927 172.962 156.986 179.621 157.612 186.292C158.238 192.963 161.383 199.145 166.407 203.579C171.431 208.012 177.956 210.364 184.653 210.155C191.351 209.946 197.716 207.192 202.454 202.454C207.192 197.716 209.946 191.351 210.155 184.653C210.364 177.956 208.012 171.431 203.579 166.407C199.145 161.383 192.963 158.238 186.292 157.612C179.621 156.986 172.962 158.927 167.672 163.039L146.629 141.996C154.962 132.658 159.89 120.776 160.614 108.281ZM193.594 95.1561C195.541 95.1561 197.444 95.7335 199.063 96.8151C200.681 97.8968 201.943 99.4341 202.688 101.233C203.433 103.032 203.628 105.011 203.248 106.92C202.868 108.83 201.931 110.584 200.554 111.96C199.178 113.337 197.424 114.275 195.514 114.655C193.605 115.034 191.625 114.839 189.827 114.094C188.028 113.349 186.491 112.088 185.409 110.469C184.327 108.85 183.75 106.947 183.75 105C183.75 102.389 184.787 99.8854 186.633 98.0393C188.479 96.1933 190.983 95.1561 193.594 95.1561ZM183.75 6.56239C187.644 6.56239 191.45 7.71705 194.688 9.88034C197.925 12.0436 200.449 15.1184 201.939 18.7158C203.429 22.3132 203.819 26.2717 203.059 30.0907C202.299 33.9097 200.424 37.4177 197.671 40.1711C194.918 42.9244 191.41 44.7995 187.591 45.5591C183.772 46.3187 179.813 45.9289 176.216 44.4388C172.618 42.9487 169.544 40.4253 167.38 37.1877C165.217 33.9501 164.062 30.1437 164.062 26.2499C164.068 21.03 166.143 16.0255 169.834 12.3345C173.525 8.64349 178.53 6.56761 183.75 6.56239ZM95.1561 16.4061C95.1561 14.4592 95.7335 12.556 96.8151 10.9373C97.8968 9.31845 99.4341 8.05676 101.233 7.31171C103.032 6.56666 105.011 6.37172 106.92 6.75154C108.83 7.13136 110.584 8.06889 111.96 9.44556C113.337 10.8222 114.275 12.5762 114.655 14.4857C115.034 16.3952 114.839 18.3745 114.094 20.1732C113.349 21.9719 112.088 23.5093 110.469 24.5909C108.85 25.6726 106.947 26.2499 105 26.2499C102.389 26.2499 99.8854 25.2128 98.0393 23.3667C96.1933 21.5207 95.1561 19.0169 95.1561 16.4061ZM6.56239 26.2499C6.56239 22.3561 7.71705 18.5497 9.88034 15.3121C12.0436 12.0745 15.1184 9.55112 18.7158 8.06102C22.3132 6.57092 26.2717 6.18104 30.0907 6.94068C33.9097 7.70033 37.4177 9.57538 40.1711 12.3287C42.9244 15.0821 44.7995 18.5901 45.5591 22.4091C46.3187 26.2281 45.9289 30.1866 44.4388 33.784C42.9487 37.3814 40.4253 40.4562 37.1877 42.6194C33.9501 44.7827 30.1437 45.9374 26.2499 45.9374C21.03 45.9322 16.0255 43.8563 12.3345 40.1653C8.64349 36.4743 6.56761 31.4697 6.56239 26.2499ZM16.4061 114.844C14.4592 114.844 12.556 114.266 10.9373 113.185C9.31845 112.103 8.05676 110.566 7.31171 108.767C6.56666 106.968 6.37172 104.989 6.75154 103.079C7.13136 101.17 8.06889 99.416 9.44556 98.0393C10.8222 96.6626 12.5762 95.7251 14.4857 95.3453C16.3952 94.9655 18.3745 95.1604 20.1732 95.9055C21.9719 96.6505 23.5093 97.9122 24.5909 99.531C25.6726 101.15 26.2499 103.053 26.2499 105C26.2499 107.611 25.2128 110.114 23.3667 111.96C21.5207 113.807 19.0169 114.844 16.4061 114.844ZM105 55.7811C114.734 55.7811 124.25 58.6678 132.344 64.076C140.438 69.4842 146.747 77.1711 150.472 86.1647C154.197 95.1582 155.172 105.054 153.273 114.602C151.374 124.149 146.686 132.919 139.803 139.803C132.919 146.686 124.149 151.374 114.602 153.273C105.054 155.172 95.1582 154.197 86.1647 150.472C77.1711 146.747 69.4842 140.438 64.076 132.344C58.6678 124.25 55.7811 114.734 55.7811 105C55.7959 91.9508 60.9862 79.4404 70.2133 70.2133C79.4404 60.9862 91.9508 55.7959 105 55.7811ZM26.2499 203.437C22.3561 203.437 18.5497 202.283 15.3121 200.119C12.0745 197.956 9.55112 194.881 8.06102 191.284C6.57092 187.687 6.18104 183.728 6.94068 179.909C7.70033 176.09 9.57538 172.582 12.3287 169.829C15.0821 167.075 18.5901 165.2 22.4091 164.441C26.2281 163.681 30.1866 164.071 33.784 165.561C37.3814 167.051 40.4562 169.575 42.6194 172.812C44.7827 176.05 45.9374 179.856 45.9374 183.75C45.9322 188.97 43.8563 193.974 40.1653 197.665C36.4743 201.356 31.4697 203.432 26.2499 203.437ZM114.844 193.594C114.844 195.541 114.266 197.444 113.185 199.063C112.103 200.681 110.566 201.943 108.767 202.688C106.968 203.433 104.989 203.628 103.079 203.248C101.17 202.868 99.416 201.931 98.0393 200.554C96.6626 199.178 95.7251 197.424 95.3453 195.514C94.9655 193.605 95.1604 191.625 95.9055 189.827C96.6505 188.028 97.9122 186.491 99.531 185.409C101.15 184.327 103.053 183.75 105 183.75C107.611 183.75 110.114 184.787 111.96 186.633C113.807 188.479 114.844 190.983 114.844 193.594ZM203.437 183.75C203.437 187.644 202.283 191.45 200.119 194.688C197.956 197.925 194.881 200.449 191.284 201.939C187.687 203.429 183.728 203.819 179.909 203.059C176.09 202.299 172.582 200.424 169.829 197.671C167.075 194.918 165.2 191.41 164.441 187.591C163.681 183.772 164.071 179.813 165.561 176.216C167.051 172.618 169.575 169.544 172.812 167.38C176.05 165.217 179.856 164.062 183.75 164.062C188.97 164.068 193.974 166.143 197.665 169.834C201.356 173.525 203.432 178.53 203.437 183.75Z" fill="white"/>
</g>
</g>
<defs>
<clipPath id="clip0_1171_13231">
<rect width="210" height="210" fill="white"/>
</clipPath>
</defs>
</svg>
