<?xml version="1.0" encoding="utf-8"?>
<!-- Generator: Adobe Illustrator 27.0.0, SVG Export Plug-In . SVG Version: 6.00 Build 0)  -->
<svg version="1.1" id="Layer_1" xmlns="http://www.w3.org/2000/svg" xmlns:xlink="http://www.w3.org/1999/xlink" x="0px" y="0px"
	 viewBox="0 0 1013.3 198.3" style="enable-background:new 0 0 1013.3 198.3;" xml:space="preserve">
<style type="text/css">
	.st0{fill:url(#SVGID_1_);}
	.st1{fill:url(#SVGID_00000019647565330686752460000008781744286699694224_);}
	.st2{fill:url(#SVGID_00000054964653165974824680000012614926951950518703_);}
	.st3{fill:url(#SVGID_00000007405306005673247090000017242279083538414996_);}
	.st4{opacity:0.6;fill:url(#SVGID_00000176009021996319686060000002837834454190283919_);enable-background:new    ;}
	.st5{opacity:0.6;fill:url(#SVGID_00000114074066553764883780000011162991602178386056_);enable-background:new    ;}
	.st6{opacity:0.6;fill:url(#SVGID_00000088812147009172305800000016330752715649716150_);enable-background:new    ;}
	.st7{opacity:0.6;fill:url(#SVGID_00000115473062713355176180000009518835003988447650_);enable-background:new    ;}
	.st8{fill:url(#SVGID_00000006668358698858422810000000076041847066692495_);}
	.st9{fill:url(#SVGID_00000147211054752103231120000017701339323284491661_);}
	.st10{fill:#FFFFFF;}
</style>
<g>
	<g id="a">
		<g>
			<g>
				<g>
					
						<linearGradient id="SVGID_1_" gradientUnits="userSpaceOnUse" x1="172.6055" y1="-9.81" x2="172.6055" y2="187.66" gradientTransform="matrix(1 0 0 -1 0 200)">
						<stop  offset="0.35" style="stop-color:#8C64FF"/>
						<stop  offset="1" style="stop-color:#3AC5FF"/>
					</linearGradient>
					<path class="st0" d="M139.6,197.8c-0.6,0-1.1-0.6-1-1.2c0.8-8.5,1.2-16.7,1.4-24.8c0.4-16.9-0.1-43.9-1.4-60.8c0,0,0,0,0,0
						l24.9-16.9c1.6,16.9,2.5,33.9,2.8,51c0.1,4.8,0,21,0,27c3.2-0.2,6.6-0.4,9.5-1.7c9-4.1,7.6-17.4,7.2-26.7l-1.5-31
						c4.3-4.4,6.3-6.9,9.9-10.8c4.3-5.1,6.5-7.5,10.6-14.1c0.3-0.4,0.9-0.3,1,0.2l0.1,1c0.8,13.9,2.3,28.1,2.9,42.2
						c1.1,26.4,5.1,59.4-26.8,65.5c-6.9,1.3-18.6,1.6-22.3,1.6C150.1,198.3,139.6,197.8,139.6,197.8L139.6,197.8z"/>
					
						<linearGradient id="SVGID_00000016776989599807592360000016933035534726284199_" gradientUnits="userSpaceOnUse" x1="174.2592" y1="-9.81" x2="174.2592" y2="187.66" gradientTransform="matrix(1 0 0 -1 0 200)">
						<stop  offset="0.35" style="stop-color:#8C64FF"/>
						<stop  offset="1" style="stop-color:#3AC5FF"/>
					</linearGradient>
					<path style="fill:url(#SVGID_00000016776989599807592360000016933035534726284199_);" d="M193,86.5
						c14.7-15.9,26.4-45.3,16.2-67.2c-8.6-18.3-31.4-24.1-49-15.2c-12.2,6.2-19.5,17.6-22.5,30.8c-2.2,9.4-2.5,19.2-2.1,28.8
						c0.5,15.8,2.3,31.6,3,47.4l24.9-16.9c-0.1-1.2-0.1-2.4-0.2-3.6c-0.8-14.7-2.4-29.5-1.1-44.3c0.6-6.9,3.3-14.3,9.2-18.5
						c1.9-1.4,4.2-2.3,6.5-2.4c11.8-0.5,8.6,17.1,6.2,23.7c-2.2,6.2-6.8,13.5-11.6,18.6L193,86.5L193,86.5z"/>
					
						<linearGradient id="SVGID_00000165234724054138379190000011001059448216646575_" gradientUnits="userSpaceOnUse" x1="40.4545" y1="-9.81" x2="40.4545" y2="187.66" gradientTransform="matrix(1 0 0 -1 0 200)">
						<stop  offset="0.35" style="stop-color:#8C64FF"/>
						<stop  offset="1" style="stop-color:#3AC5FF"/>
					</linearGradient>
					<path style="fill:url(#SVGID_00000165234724054138379190000011001059448216646575_);" d="M73.5,197.8c0.6,0,1.1-0.6,1-1.2
						c-0.8-8.5-1.2-16.7-1.4-24.8c-0.4-16.9,0.1-43.9,1.4-60.8c0,0,0,0,0,0L49.6,94.2c-1.6,16.9-2.5,33.9-2.8,51c-0.1,4.8,0,21,0,27
						c-3.2-0.2-6.5-0.4-9.5-1.7c-9-4.1-7.6-17.4-7.2-26.7l1.5-31c-4.3-4.4-6.3-6.9-9.9-10.8c-4.3-5.1-6.5-7.5-10.6-14.1
						c-0.3-0.4-0.9-0.3-1,0.2l-0.1,1c-0.8,13.9-2.3,28.1-2.9,42.2c-1.1,26.4-5.1,59.4,26.8,65.5c6.9,1.3,18.6,1.6,22.3,1.6
						C62.9,198.3,73.5,197.8,73.5,197.8L73.5,197.8z"/>
					
						<linearGradient id="SVGID_00000008116334035933726930000007912100710334327942_" gradientUnits="userSpaceOnUse" x1="38.7896" y1="-9.81" x2="38.7896" y2="187.66" gradientTransform="matrix(1 0 0 -1 0 200)">
						<stop  offset="0.35" style="stop-color:#8C64FF"/>
						<stop  offset="1" style="stop-color:#3AC5FF"/>
					</linearGradient>
					<path style="fill:url(#SVGID_00000008116334035933726930000007912100710334327942_);" d="M40.7,67.7
						c-4.9-5.2-9.4-12.4-11.6-18.6c-2.4-6.7-5.6-24.2,6.2-23.7c2.4,0.1,4.6,1.1,6.5,2.4c5.9,4.2,8.6,11.5,9.2,18.5
						c1.2,14.8-0.3,29.6-1.1,44.3c-0.1,1.2-0.1,2.4-0.2,3.6l24.9,16.9c0.7-15.8,2.5-31.6,3-47.4c0.3-9.6,0-19.4-2.2-28.8
						C72.3,21.8,65,10.4,52.8,4.1C35.2-4.8,12.4,1,3.8,19.3C-6.3,41.1,5.4,70.5,20.1,86.5L40.7,67.7L40.7,67.7z"/>
				</g>
				
					<linearGradient id="SVGID_00000126288142602065801910000012769137772426047131_" gradientUnits="userSpaceOnUse" x1="158.3831" y1="81.4709" x2="146.6431" y2="-4.8091" gradientTransform="matrix(1 0 0 -1 0 200)">
					<stop  offset="0.14" style="stop-color:#7853B8"/>
					<stop  offset="0.22" style="stop-color:#7D55BD;stop-opacity:0.89"/>
					<stop  offset="0.38" style="stop-color:#895CCA;stop-opacity:0.62"/>
					<stop  offset="0.6" style="stop-color:#9E67E0;stop-opacity:0.18"/>
					<stop  offset="0.68" style="stop-color:#A76CE9;stop-opacity:0"/>
				</linearGradient>
				
					<path style="opacity:0.6;fill:url(#SVGID_00000126288142602065801910000012769137772426047131_);enable-background:new    ;" d="
					M166.3,172.1c-0.1,7.6-0.3,18.1-0.6,25.9c-3.8,0.2-7.1,0.3-8.8,0.3c-6.8,0-17.3-0.5-17.3-0.5c-0.6,0-1.1-0.6-1-1.2
					c0.8-8.5,1.2-16.7,1.4-24.8c0.3-12.7,0.1-31.1-0.6-46.6l25.5-13.4c0.7,11.1,1.2,22.2,1.4,33.3
					C166.3,150,166.3,166.2,166.3,172.1L166.3,172.1z"/>
				
					<linearGradient id="SVGID_00000164509173309536060840000016747782143430505888_" gradientUnits="userSpaceOnUse" x1="149.4655" y1="85.51" x2="149.4655" y2="214.89" gradientTransform="matrix(1 0 0 -1 0 200)">
					<stop  offset="7.000000e-02" style="stop-color:#5046DC"/>
					<stop  offset="0.12" style="stop-color:#5749DD;stop-opacity:0.91"/>
					<stop  offset="0.24" style="stop-color:#6B52E0;stop-opacity:0.68"/>
					<stop  offset="0.39" style="stop-color:#8B60E4;stop-opacity:0.31"/>
					<stop  offset="0.52" style="stop-color:#A76CE9;stop-opacity:0"/>
				</linearGradient>
				
					<path style="opacity:0.6;fill:url(#SVGID_00000164509173309536060840000016747782143430505888_);enable-background:new    ;" d="
					M137.7,34.9c-2.2,9.4-2.5,19.2-2.1,28.8c0.5,15.8,2.3,31.6,3,47.4l24.9-16.9c-0.1-1.2-0.1-2.4-0.2-3.6
					c-0.8-14.7-2.4-29.5-1.1-44.3"/>
				
					<linearGradient id="SVGID_00000031178706856696382780000011152902895838901925_" gradientUnits="userSpaceOnUse" x1="1860.9229" y1="81.4696" x2="1849.1829" y2="-4.8104" gradientTransform="matrix(-1 0 0 -1 1915.59 200)">
					<stop  offset="0.14" style="stop-color:#7853B8"/>
					<stop  offset="0.22" style="stop-color:#7D55BD;stop-opacity:0.89"/>
					<stop  offset="0.38" style="stop-color:#895CCA;stop-opacity:0.62"/>
					<stop  offset="0.6" style="stop-color:#9E67E0;stop-opacity:0.18"/>
					<stop  offset="0.68" style="stop-color:#A76CE9;stop-opacity:0"/>
				</linearGradient>
				
					<path style="opacity:0.6;fill:url(#SVGID_00000031178706856696382780000011152902895838901925_);enable-background:new    ;" d="
					M46.8,172.1c0,7.6,0.3,18.1,0.6,25.9c3.8,0.2,7.2,0.3,8.8,0.3c6.8,0,17.3-0.5,17.3-0.5c0.6,0,1.1-0.6,1-1.2
					c-0.8-8.5-1.2-16.7-1.4-24.8c-0.3-12.7-0.1-31.1,0.6-46.6l-25.5-13.4c-0.7,11.1-1.2,22.2-1.4,33.3
					C46.7,150,46.7,166.2,46.8,172.1L46.8,172.1z"/>
				
					<linearGradient id="SVGID_00000037656110128886458220000001910304415985414062_" gradientUnits="userSpaceOnUse" x1="2210.6575" y1="85.51" x2="2210.6575" y2="214.89" gradientTransform="matrix(-1 0 0 -1 2274.25 200)">
					<stop  offset="7.000000e-02" style="stop-color:#8C64FF"/>
					<stop  offset="0.12" style="stop-color:#8E64FD;stop-opacity:0.92"/>
					<stop  offset="0.22" style="stop-color:#9366F8;stop-opacity:0.72"/>
					<stop  offset="0.35" style="stop-color:#9C68F1;stop-opacity:0.4"/>
					<stop  offset="0.52" style="stop-color:#A76CE9;stop-opacity:0"/>
				</linearGradient>
				
					<path style="opacity:0.6;fill:url(#SVGID_00000037656110128886458220000001910304415985414062_);enable-background:new    ;" d="
					M50.9,46.3c1.2,14.8-0.3,29.6-1.1,44.3c-0.1,1.2-0.1,2.4-0.2,3.6l24.9,16.9c0.7-15.8,2.5-31.6,3-47.4c0.3-9.6,0-19.4-2.2-28.8"
					/>
				
					<linearGradient id="SVGID_00000114054004945779457390000006883449168432358061_" gradientUnits="userSpaceOnUse" x1="72.485" y1="-10.17" x2="72.485" y2="189.04" gradientTransform="matrix(1 0 0 -1 0 200)">
					<stop  offset="0.35" style="stop-color:#8C64FF"/>
					<stop  offset="1" style="stop-color:#3AC5FF"/>
				</linearGradient>
				<path style="fill:url(#SVGID_00000114054004945779457390000006883449168432358061_);" d="M126.6,153.2c-2.5,2.4-5,4.8-7.5,7.2
					c-2.6,2.4-5.1,4.9-7.6,7.2c-2.8,2.6-7.1,2.6-9.9,0c-2.5-2.4-5-4.8-7.6-7.2c-2.5-2.4-5-4.8-7.5-7.2
					C62.6,130.3,37,105.2,20.1,86.5l-1.7-1.9l21.3-17.7l1,0.9c17.7,20.5,42.7,44.8,65.8,66.7c2.6,2.4,5.1,4.8,7.6,7.1
					C118.4,145.6,122.5,149.5,126.6,153.2L126.6,153.2z"/>
				
					<linearGradient id="SVGID_00000034801178067862766770000014978137433807976340_" gradientUnits="userSpaceOnUse" x1="140.375" y1="-10.66" x2="140.375" y2="190.96" gradientTransform="matrix(1 0 0 -1 0 200)">
					<stop  offset="0.35" style="stop-color:#8C64FF"/>
					<stop  offset="1" style="stop-color:#3AC5FF"/>
				</linearGradient>
				<path style="fill:url(#SVGID_00000034801178067862766770000014978137433807976340_);" d="M193,86.5
					c-16.9,18.8-42.5,43.8-66.4,66.7c-2.5,2.4-5,4.8-7.5,7.2c-2.6,2.4-5.1,4.9-7.6,7.2c-2.8,2.6-7.1,2.6-9.9,0
					c-2.5-2.4-5-4.8-7.6-7.2c-2.5-2.4-5-4.8-7.5-7.2c4-3.7,8.2-7.6,12.4-11.6c2.5-2.4,5-4.7,7.6-7.1c23.1-21.8,48.1-46.2,65.8-66.7
					l1.9-2.1l20,19.2L193,86.5L193,86.5z"/>
			</g>
			<g>
				<path class="st10" d="M363.4,53.9c-12.2,0-23.9,5.3-29.8,16.8c-6-11.5-17.3-16.8-30.5-16.8c-11.9,0-20.9,4.5-25.6,12.6V55.8
					h-27.3v98h26.4V98.9c0-14.5,7.5-21.5,18.6-21.5s17.7,6.6,17.7,22.6v53.7h25.4V99.5c0.4-15.3,8.3-22,18.6-22s17.7,6.6,17.7,21.3
					v55.2h26.6V93.4C401.3,66.3,383,53.9,363.4,53.9L363.4,53.9z"/>
				<path class="st10" d="M929,81.2h-27.5v72.5h26.6L929,81.2z"/>
				<rect x="929" y="55.8" class="st10" width="26.8" height="25.4"/>
				<path class="st10" d="M507.3,112h-70.7c0.4,14.5,10.5,22.6,23.1,22.6c9.6,0,17.3-4.3,20.3-12.8h26.5c-4.3,20.3-23,34-47.6,34
					c-29.4,0-48.9-20.3-48.9-51S429.6,54,458.8,54s48.5,19.4,48.5,49.3L507.3,112L507.3,112z M436.8,94.7H481
					c-1.1-13.6-10.7-20.1-22.2-20.1S437.9,81.2,436.8,94.7L436.8,94.7z"/>
				<path class="st10" d="M517.3,124.8c0,17.7,9.4,29,28.8,29H566v-23.1h-11.5c-8.7,0-10.9-3.2-10.9-11.7V79.3h22.4V55.9h-22.4V29.2
					h-26.3V124.8z"/>
				<path class="st10" d="M964.6,124.8c0,17.7,9.4,29,28.8,29h19.9v-23.1h-11.5c-8.7,0-10.9-3.2-10.9-11.7V79.3h22.4V55.9h-22.4
					V29.2h-26.3V124.8z"/>
				<path class="st10" d="M619.8,54c-25.6,0-43.7,13.4-43.7,35.4H600c0.4-8.7,7.7-14.5,18.6-14.5s17.9,6,17.9,16.9v4.3h-26.2
					c-25,0-36.7,11.8-36.7,29.3c0,18.8,13.9,30.1,35.5,30.1c14.5,0,25.8-5.1,31.2-13.4v11.5H663V92.4C663,63.6,641,54,619.8,54
					L619.8,54z M636.5,116.9c0,11.7-7.5,18.1-20.5,18.1c-8.7,0-15.2-3-15.2-11.1c0-5.3,3-10.5,14.3-10.5h21.5V116.9L636.5,116.9z"/>
				<path class="st10" d="M782.6,105c0,31-18.1,50.8-46.3,50.8c-14.3,0-26.3-5.8-31.4-14.5v50.1h-26.3V55.9h26.2v13.4
					c4.9-8.5,16.6-15.2,31.6-15.2C763.1,54.1,782.6,72.3,782.6,105z M755.5,105c0-16.9-10.5-27.3-25-27.5c-14.3,0-25,10.5-25,27.7
					s10.7,27.1,25,27.1S755.5,122.2,755.5,105z"/>
				<path class="st10" d="M841.5,53.9c29.9,0,51.2,20.7,51.2,51s-21.3,50.8-51.2,50.8s-51.2-20.3-51.2-50.8S811.6,53.9,841.5,53.9z
					 M841.5,133.3c14.7,0,24.3-11.3,24.3-28.6s-9.6-28.4-24.3-28.4s-24.3,10.9-24.3,28.4S826.9,133.3,841.5,133.3L841.5,133.3z"/>
			</g>
		</g>
	</g>
</g>
</svg>
