<svg width="24" height="24" viewBox="0 0 24 24" fill="none" xmlns="http://www.w3.org/2000/svg">
<g id="whatsapp (1) 2" clip-path="url(#clip0_165_210)">
<path id="Vector" d="M17.0341 13.7828L17.0258 13.8524C14.9978 12.8352 14.7856 12.6997 14.5237 13.095C14.342 13.3688 13.8127 13.9897 13.6531 14.1735C13.4917 14.3545 13.3312 14.3684 13.0573 14.2431C12.7806 14.1039 11.8925 13.8115 10.8411 12.8649C10.0222 12.127 9.47249 11.2221 9.31017 10.9437C9.03995 10.4741 9.6053 10.4072 10.1199 9.42715C10.2121 9.23224 10.1651 9.0791 10.0969 8.94082C10.0277 8.8016 9.4771 7.43728 9.24654 6.89341C9.02519 6.35139 8.79739 6.42007 8.62677 6.42007C8.09555 6.37366 7.70728 6.38109 7.36512 6.73934C5.87659 8.38581 6.25195 10.0842 7.52559 11.8903C10.0286 15.187 11.3622 15.794 13.8007 16.6367C14.4592 16.8474 15.0596 16.8177 15.5345 16.749C16.0639 16.6645 17.1642 16.0798 17.3938 15.4255C17.629 14.7712 17.629 14.2283 17.5598 14.103C17.4916 13.9777 17.3108 13.9081 17.0341 13.7828Z" fill="white"/>
<path id="Vector_2" d="M19.9521 4.01942C12.7756 -2.91793 0.898982 2.11358 0.894316 11.9003C0.894316 13.8566 1.40672 15.7643 2.38298 17.4489L0.800049 23.2L6.71272 21.6582C14.0907 25.6434 23.1963 20.3515 23.2001 11.9059C23.2001 8.94173 22.0427 6.15204 19.938 4.05581L19.9521 4.01942ZM21.3353 11.8751C21.3297 18.9991 13.5092 23.4483 7.32405 19.8121L6.98805 19.6123L3.48805 20.5223L4.42605 17.1204L4.20298 16.7704C0.353915 10.6432 4.77605 2.63531 12.0672 2.63531C14.5443 2.63531 16.8693 3.60129 18.6202 5.35126C20.3702 7.08629 21.3353 9.41119 21.3353 11.8751Z" fill="white"/>
</g>
<defs>
<clipPath id="clip0_165_210">
<rect width="24" height="24" fill="white"/>
</clipPath>
</defs>
</svg>
